<svg width="823" height="701" viewBox="0 0 823 701" fill="none" xmlns="http://www.w3.org/2000/svg">
<path d="M435.5 651H381V687.5H435.5V651Z" stroke="#9C9E9F" stroke-width="4"/>
<path d="M381 670H434.5" stroke="#9C9E9F" stroke-width="4"/>
<path d="M408.5 687.5V669" stroke="#9C9E9F" stroke-width="4"/>
<path d="M390 688V695.652L393.182 699H422.879L425 695.652V688" stroke="#9C9E9F" stroke-width="4"/>
<path d="M386.5 641V649.5" stroke="#9C9E9F" stroke-width="4"/>
<path d="M428 642V649.5" stroke="#9C9E9F" stroke-width="4"/>
<path d="M408.5 622.5V640.5" stroke="#9C9E9F" stroke-width="4"/>
<path d="M324.5 247L255 177L237.5 150" stroke="#9C9E9F" stroke-width="4"/>
<path d="M245 349L241 334C262.278 295.655 280.796 276.595 324 247L338 251.5" stroke="#9C9E9F" stroke-width="4"/>
<path d="M809 122C809 182.225 760.845 231 701.5 231C642.155 231 594 182.225 594 122C594 61.7752 642.155 13 701.5 13C760.845 13 809 61.7752 809 122Z" stroke="#9C9E9F" stroke-width="4"/>
<path d="M821 122.5C821 189.074 767.699 243 702 243C636.301 243 583 189.074 583 122.5C583 55.9264 636.301 2 702 2C767.699 2 821 55.9264 821 122.5Z" stroke="#9C9E9F" stroke-width="4"/>
<path d="M240 122.5C240 189.074 186.699 243 121 243C55.3013 243 2 189.074 2 122.5C2 55.9264 55.3013 2 121 2C186.699 2 240 55.9264 240 122.5Z" stroke="#9C9E9F" stroke-width="4"/>
<path d="M590 417C590 517.547 509.828 599 411 599C312.172 599 232 517.547 232 417C232 316.453 312.172 235 411 235C509.828 235 590 316.453 590 417Z" stroke="#9C9E9F" stroke-width="4"/>
<path d="M571 417.5C571 507.275 499.337 580 411 580C322.663 580 251 507.275 251 417.5C251 327.725 322.663 255 411 255C499.337 255 571 327.725 571 417.5Z" stroke="#9C9E9F" stroke-width="4"/>
<path d="M518 417C518 477.225 469.845 526 410.5 526C351.155 526 303 477.225 303 417C303 356.775 351.155 308 410.5 308C469.845 308 518 356.775 518 417Z" stroke="#9C9E9F" stroke-width="4"/>
<path d="M228 122C228 182.225 179.845 231 120.5 231C61.155 231 13 182.225 13 122C13 61.7752 61.155 13 120.5 13C179.845 13 228 61.7752 228 122Z" stroke="#9C9E9F" stroke-width="4"/>
<path d="M541 417C541 489.923 482.552 549 410.5 549C338.448 549 280 489.923 280 417C280 344.077 338.448 285 410.5 285C482.552 285 541 344.077 541 417Z" stroke="#9C9E9F" stroke-width="4"/>
<path d="M241.5 336.5L165 260L154.5 252.5L145.5 246L119 243" stroke="#9C9E9F" stroke-width="4"/>
<path d="M497.5 247L567 177L585 147" stroke="#9C9E9F" stroke-width="4"/>
<path d="M577.5 349L581 334C559.722 295.655 541.204 276.595 498 247L484 251.5" stroke="#9C9E9F" stroke-width="4"/>
<path d="M580.5 336.5L657 260L667.5 252.5L676.5 246L703 243" stroke="#9C9E9F" stroke-width="4"/>
<path d="M386 598V606.5L389.5 611.5H429L431.5 606.5V598" stroke="#9C9E9F" stroke-width="4"/>
<path d="M389.5 611V622.5H428.5V611" stroke="#9C9E9F" stroke-width="4"/>
<path d="M391 622L383 624.85V641H434V624.85L428 622" stroke="#9C9E9F" stroke-width="4"/>
<path d="M409 233V235H413V233H409ZM413 140C413 138.895 412.105 138 411 138C409.895 138 409 138.895 409 140H413ZM413 233V140H409V233H413Z" fill="#9C9E9F"/>
</svg>
