<svg width="430" height="161" viewBox="0 0 430 161" fill="none" xmlns="http://www.w3.org/2000/svg">
<path fill-rule="evenodd" clip-rule="evenodd" d="M170.16 57.577H176.674V55.1039H161.34L160.827 57.577H167.707V81.9175L170.16 81.6081V57.577ZM194.167 81.6081L194.569 79.1358H182.2V69.3996H192.264V66.9265H182.2V57.577H193.947L193.508 55.1039H179.748V81.6081H194.167ZM196.252 56.1471L204.304 67.5836L195.118 80.9127L197.46 81.9175L205.731 69.7473H205.804L214.441 81.9175L216.783 80.797L207.195 67.5836L215.1 56.1471L212.94 54.7952L205.767 65.4199L205.694 65.3815L198.228 54.7952L196.252 56.1471ZM221.211 81.6081V57.4997H235.264V81.9175L237.716 81.6081V55.1039H218.759V81.9175L221.211 81.6081ZM243.132 81.9175L245.584 81.6081V72.9151C246.206 72.9924 246.829 73.0308 247.45 73.0308C248.927 73.0246 250.257 72.7925 251.44 72.3353C252.623 71.8788 253.635 71.2408 254.471 70.4297C255.312 69.6248 255.953 68.6843 256.399 67.6219C256.844 66.5534 257.07 65.4069 257.075 64.1837C257.075 63.3527 256.966 62.5156 256.746 61.6655C256.52 60.816 256.173 59.998 255.697 59.2191C255.221 58.4395 254.605 57.7379 253.849 57.1197C253.092 56.5017 252.183 56.0123 251.116 55.6577C250.049 55.2977 248.817 55.1108 247.414 55.1039H243.132V81.9175ZM245.584 57.4606H247.89C248.951 57.4676 249.89 57.6544 250.708 58.0274C251.519 58.395 252.202 58.8967 252.757 59.5278C253.312 60.1589 253.733 60.8735 254.014 61.6655C254.3 62.4581 254.44 63.2884 254.44 64.1447C254.44 64.9435 254.312 65.7224 254.05 66.4822C253.788 67.242 253.379 67.9244 252.836 68.5364C252.287 69.1545 251.598 69.6378 250.751 70.0046C249.908 70.3653 248.902 70.5522 247.744 70.5584C247.377 70.5584 247.017 70.5584 246.664 70.5454C246.31 70.5324 245.95 70.5002 245.584 70.4427V57.4606ZM258.979 68.3947C258.985 69.8308 259.198 71.2278 259.619 72.5803C260.046 73.9261 260.65 75.1883 261.443 76.354C262.23 77.5128 263.181 78.5368 264.285 79.4191C265.389 80.2946 266.621 80.9832 267.994 81.4726C269.36 81.9688 270.83 82.22 272.409 82.2262C273.989 82.22 275.459 81.9688 276.825 81.4726C278.198 80.9832 279.43 80.2946 280.534 79.4191C281.644 78.5368 282.589 77.5128 283.382 76.354C284.169 75.1883 284.779 73.9261 285.2 72.5803C285.621 71.2278 285.834 69.8308 285.84 68.3947C285.834 66.8943 285.645 65.5102 285.267 64.2351C284.889 62.9667 284.364 61.8202 283.699 60.79C283.035 59.7537 282.266 58.8515 281.388 58.0665C280.516 57.2807 279.576 56.6242 278.576 56.0897C277.576 55.5612 276.551 55.1622 275.502 54.8917C274.453 54.6214 273.422 54.4859 272.409 54.4859C271.397 54.4859 270.366 54.6214 269.317 54.8917C268.268 55.1622 267.243 55.5612 266.243 56.0897C265.243 56.6242 264.303 57.2807 263.431 58.0665C262.553 58.8515 261.785 59.7537 261.12 60.79C260.455 61.8202 259.93 62.9667 259.552 64.2351C259.18 65.5102 258.985 66.8943 258.979 68.3947ZM261.614 68.279C261.614 67.1969 261.766 66.1154 262.071 65.04C262.37 63.9647 262.821 62.9406 263.413 61.9749C264.004 61.0091 264.737 60.1459 265.603 59.393C266.475 58.6455 267.481 58.0534 268.616 57.6222C269.756 57.1841 271.019 56.9651 272.409 56.9589C273.8 56.9651 275.069 57.1841 276.203 57.6222C277.338 58.0534 278.344 58.6455 279.216 59.393C280.083 60.1459 280.815 61.0091 281.406 61.9749C282.004 62.9406 282.449 63.9647 282.754 65.04C283.053 66.1154 283.205 67.1969 283.205 68.279C283.199 69.8821 282.925 71.3764 282.382 72.7604C281.846 74.1451 281.089 75.3621 280.113 76.4053C279.143 77.4546 277.997 78.2726 276.691 78.8585C275.38 79.4444 273.953 79.747 272.409 79.7539C270.866 79.7468 269.439 79.4444 268.128 78.8585C266.822 78.2726 265.682 77.4546 264.706 76.4053C263.73 75.3621 262.974 74.1451 262.437 72.7604C261.894 71.3764 261.62 69.8821 261.614 68.279ZM300.406 82.4583L308.237 62.5998H308.347L311.714 82.2262L314.056 81.6081L309.079 54.5249H308.969L300.516 76.3923H300.369L291.659 54.4859H291.55L286.609 81.6081L289.061 82.2262L292.354 62.7928H292.464L300.406 82.4583ZM338.906 81.6081L326.133 54.4859H326.06L313.288 81.6081L315.52 82.2262L320.681 71.2155H331.33L336.527 82.2262L338.906 81.6081ZM321.852 68.7424L326.023 59.8947L330.159 68.7424H321.852ZM340.991 81.9175L343.443 81.6081V72.9151C344.065 72.9924 344.688 73.0308 345.31 73.0308C346.786 73.0246 348.116 72.7925 349.299 72.3353C350.482 71.8788 351.494 71.2408 352.33 70.4297C353.172 69.6248 353.812 68.6843 354.258 67.6219C354.703 66.5534 354.929 65.4069 354.934 64.1837C354.934 63.3527 354.825 62.5156 354.605 61.6655C354.379 60.816 354.032 59.998 353.556 59.2191C353.08 58.4395 352.464 57.7379 351.708 57.1197C350.952 56.5017 350.043 56.0123 348.975 55.6577C347.908 55.2977 346.676 55.1108 345.273 55.1039H340.991V81.9175ZM343.443 57.4606H345.749C346.81 57.4676 347.749 57.6544 348.567 58.0274C349.378 58.395 350.061 58.8967 350.616 59.5278C351.171 60.1589 351.592 60.8735 351.873 61.6655C352.159 62.4581 352.299 63.2884 352.299 64.1447C352.299 64.9435 352.171 65.7224 351.909 66.4822C351.647 67.242 351.238 67.9244 350.695 68.5364C350.146 69.1545 349.457 69.6378 348.61 70.0046C347.767 70.3653 346.761 70.5522 345.602 70.5584C345.236 70.5584 344.876 70.5584 344.523 70.5454C344.169 70.5324 343.809 70.5002 343.443 70.4427V57.4606ZM369.5 82.4583L377.332 62.5998H377.442L380.808 82.2262L383.151 81.6081L378.173 54.5249H378.064L369.61 76.3923H369.464L360.754 54.4859H360.644L355.703 81.6081L358.156 82.2262L361.449 62.7928H361.559L369.5 82.4583ZM408 81.6081L395.228 54.4859H395.154L382.382 81.6081L384.615 82.2262L389.775 71.2155H400.424L405.621 82.2262L408 81.6081ZM390.946 68.7424L395.117 59.8947L399.253 68.7424H390.946Z" fill="#008BD0"/>
<path fill-rule="evenodd" clip-rule="evenodd" d="M166.215 113.44C166.215 113.122 166.299 112.86 166.467 112.659C166.632 112.456 166.839 112.355 167.088 112.355C167.284 112.355 167.452 112.394 167.591 112.469C167.731 112.548 167.855 112.646 167.964 112.768C168.054 112.866 168.15 112.998 168.253 113.162C168.358 113.329 168.439 113.467 168.501 113.575C168.802 113.405 169.166 112.952 169.588 112.22C170.008 111.492 170.314 110.848 170.501 110.297C169.927 108.778 169.405 107.42 168.936 106.222C168.47 105.025 167.982 103.784 167.473 102.502C167.355 102.209 167.163 101.98 166.889 101.816C166.616 101.651 166.343 101.547 166.07 101.504V100.868H170.166V101.54C169.982 101.547 169.765 101.589 169.51 101.662C169.256 101.734 169.129 101.819 169.129 101.917C169.129 101.953 169.141 102.019 169.169 102.108C169.197 102.2 169.228 102.291 169.265 102.387C169.495 103.023 169.846 103.936 170.321 105.133C170.793 106.327 171.16 107.282 171.421 108.001C171.694 107.315 171.977 106.606 172.271 105.871C172.567 105.14 172.896 104.27 173.259 103.272C173.3 103.151 173.362 102.981 173.44 102.767C173.52 102.554 173.557 102.367 173.557 102.213C173.557 102.048 173.421 101.891 173.144 101.747C172.868 101.602 172.607 101.517 172.358 101.484V100.868H175.688V101.465C175.505 101.497 175.265 101.606 174.97 101.796C174.673 101.986 174.452 102.252 174.306 102.6C173.582 104.368 172.943 105.979 172.38 107.433C171.818 108.89 171.393 109.959 171.101 110.645C170.718 111.541 170.38 112.243 170.079 112.745C169.778 113.247 169.485 113.644 169.2 113.933C168.92 114.202 168.669 114.382 168.443 114.474C168.212 114.569 167.98 114.615 167.734 114.615C167.262 114.615 166.889 114.497 166.623 114.258C166.352 114.022 166.215 113.749 166.215 113.44ZM182.557 107.558C182.557 106.997 182.358 106.55 181.964 106.222C181.57 105.897 181.008 105.733 180.271 105.733C179.952 105.733 179.697 105.74 179.513 105.753C179.328 105.766 179.185 105.769 179.082 105.769V108.906C179.082 109.156 179.182 109.349 179.38 109.487C179.582 109.624 179.887 109.694 180.299 109.694C180.738 109.694 181.107 109.631 181.411 109.51C181.713 109.388 181.952 109.221 182.119 109.011C182.284 108.804 182.399 108.581 182.461 108.338C182.526 108.093 182.557 107.833 182.557 107.558ZM184.377 107.702C184.377 108.171 184.278 108.575 184.076 108.913C183.877 109.254 183.601 109.533 183.247 109.75C182.927 109.95 182.561 110.097 182.147 110.199C181.735 110.297 181.296 110.347 180.828 110.347H176.088V109.713C176.228 109.7 176.371 109.687 176.52 109.674C176.669 109.661 176.796 109.635 176.905 109.595C177.076 109.54 177.203 109.437 177.284 109.293C177.365 109.149 177.408 108.962 177.408 108.732V102.58C177.408 102.367 177.365 102.189 177.281 102.045C177.194 101.901 177.067 101.792 176.899 101.714C176.74 101.638 176.585 101.586 176.439 101.56C176.29 101.534 176.15 101.517 176.023 101.504V100.868C176.564 100.868 177.231 100.864 178.029 100.857C178.827 100.851 179.66 100.848 180.526 100.848C180.989 100.848 181.418 100.884 181.815 100.949C182.213 101.018 182.567 101.13 182.875 101.291C183.197 101.458 183.446 101.684 183.623 101.97C183.797 102.255 183.887 102.6 183.887 103.003C183.887 103.636 183.697 104.139 183.324 104.506C182.952 104.877 182.464 105.127 181.856 105.261V105.365C182.166 105.412 182.471 105.487 182.772 105.589C183.07 105.691 183.34 105.832 183.576 106.012C183.819 106.196 184.014 106.426 184.157 106.698C184.303 106.97 184.377 107.305 184.377 107.702ZM182.082 103.079C182.082 102.758 182.026 102.498 181.915 102.295C181.803 102.094 181.654 101.937 181.464 101.819C181.278 101.704 181.067 101.625 180.834 101.586C180.597 101.543 180.358 101.523 180.111 101.523C179.952 101.523 179.778 101.527 179.585 101.536C179.395 101.547 179.228 101.553 179.082 101.56V105.021H179.964C180.384 105.021 180.734 104.968 181.02 104.867C181.302 104.765 181.52 104.628 181.666 104.454C181.818 104.286 181.924 104.09 181.99 103.856C182.051 103.627 182.082 103.367 182.082 103.079ZM193.692 108.115C193.316 108.874 192.813 109.474 192.182 109.924C191.552 110.373 190.825 110.596 190.008 110.596C189.284 110.596 188.653 110.461 188.111 110.192C187.567 109.924 187.12 109.559 186.769 109.097C186.418 108.637 186.154 108.096 185.98 107.482C185.809 106.865 185.721 106.216 185.721 105.53C185.721 104.916 185.815 104.313 185.998 103.719C186.185 103.125 186.455 102.593 186.815 102.118C187.16 101.664 187.588 101.298 188.101 101.018C188.613 100.74 189.188 100.599 189.825 100.599C190.48 100.599 191.043 100.707 191.508 100.927C191.977 101.143 192.356 101.441 192.645 101.819C192.924 102.18 193.132 102.603 193.269 103.089C193.406 103.578 193.474 104.106 193.474 104.673V105.31H187.532C187.532 105.93 187.588 106.494 187.7 107C187.812 107.509 187.989 107.951 188.235 108.338C188.471 108.709 188.778 109.001 189.16 109.218C189.542 109.431 189.999 109.54 190.527 109.54C191.067 109.54 191.533 109.405 191.924 109.139C192.312 108.874 192.691 108.394 193.055 107.702L193.692 108.115ZM191.682 104.503C191.682 104.142 191.654 103.758 191.595 103.348C191.536 102.938 191.446 102.597 191.318 102.321C191.179 102.026 190.986 101.786 190.744 101.599C190.502 101.412 190.187 101.32 189.806 101.32C189.17 101.32 188.641 101.599 188.219 102.16C187.796 102.721 187.57 103.502 187.532 104.503H191.682ZM202.927 101.993C203.285 102.442 203.561 102.964 203.76 103.554C203.956 104.148 204.055 104.825 204.055 105.589C204.055 106.337 203.937 107.023 203.701 107.639C203.462 108.259 203.151 108.785 202.763 109.221C202.356 109.664 201.902 110.005 201.405 110.242C200.909 110.478 200.381 110.596 199.825 110.596C199.284 110.596 198.84 110.533 198.496 110.405C198.151 110.277 197.869 110.127 197.648 109.953H197.576V112.798C197.576 113.027 197.62 113.221 197.704 113.375C197.788 113.529 197.918 113.641 198.096 113.709C198.241 113.769 198.449 113.824 198.719 113.881C198.99 113.933 199.209 113.965 199.387 113.969V114.615H194.375V113.969C194.561 113.959 194.744 113.943 194.918 113.923C195.095 113.903 195.254 113.87 195.393 113.828C195.573 113.762 195.7 113.651 195.775 113.49C195.846 113.329 195.884 113.142 195.884 112.922V102.839C195.884 102.646 195.837 102.462 195.747 102.282C195.657 102.101 195.54 101.957 195.393 101.849C195.284 101.773 195.133 101.714 194.937 101.671C194.744 101.629 194.555 101.602 194.375 101.589V100.966L197.43 100.753L197.557 100.868V101.937L197.632 101.953C197.946 101.569 198.337 101.251 198.804 100.992C199.272 100.736 199.735 100.608 200.198 100.608C200.754 100.608 201.266 100.733 201.729 100.982C202.195 101.235 202.593 101.569 202.927 101.993ZM201.443 108.808C201.686 108.411 201.866 107.951 201.98 107.423C202.095 106.898 202.154 106.314 202.154 105.665C202.154 105.192 202.104 104.706 202.008 104.214C201.909 103.719 201.76 103.292 201.552 102.925C201.346 102.554 201.076 102.252 200.741 102.022C200.409 101.792 200.008 101.675 199.542 101.675C199.092 101.675 198.71 101.779 198.396 101.99C198.08 102.196 197.806 102.445 197.576 102.734V108.338C197.632 108.509 197.72 108.689 197.843 108.877C197.968 109.06 198.108 109.221 198.26 109.355C198.446 109.516 198.651 109.648 198.868 109.746C199.086 109.845 199.353 109.893 199.67 109.893C200.008 109.893 200.337 109.798 200.651 109.611C200.968 109.421 201.232 109.156 201.443 108.808ZM213.344 108.115C212.968 108.874 212.465 109.474 211.834 109.924C211.204 110.373 210.477 110.596 209.66 110.596C208.938 110.596 208.306 110.461 207.763 110.192C207.22 109.924 206.773 109.559 206.421 109.097C206.07 108.637 205.807 108.096 205.632 107.482C205.462 106.865 205.375 106.216 205.375 105.53C205.375 104.916 205.468 104.313 205.651 103.719C205.838 103.125 206.108 102.593 206.468 102.118C206.813 101.664 207.241 101.298 207.754 101.018C208.266 100.74 208.841 100.599 209.478 100.599C210.132 100.599 210.695 100.707 211.161 100.927C211.63 101.143 212.008 101.441 212.297 101.819C212.577 102.18 212.785 102.603 212.922 103.089C213.058 103.578 213.127 104.106 213.127 104.673V105.31H207.186C207.186 105.93 207.241 106.494 207.353 107C207.464 107.509 207.642 107.951 207.887 108.338C208.124 108.709 208.431 109.001 208.813 109.218C209.194 109.431 209.651 109.54 210.179 109.54C210.72 109.54 211.185 109.405 211.577 109.139C211.965 108.874 212.344 108.394 212.708 107.702L213.344 108.115ZM211.335 104.503C211.335 104.142 211.307 103.758 211.248 103.348C211.189 102.938 211.098 102.597 210.971 102.321C210.832 102.026 210.639 101.786 210.397 101.599C210.154 101.412 209.841 101.32 209.459 101.32C208.822 101.32 208.294 101.599 207.872 102.16C207.449 102.721 207.223 103.502 207.186 104.503H211.335ZM224.435 110.347H220.049V109.713C220.189 109.7 220.332 109.687 220.481 109.674C220.63 109.661 220.76 109.635 220.869 109.595C221.04 109.54 221.167 109.437 221.26 109.293C221.35 109.149 221.397 108.962 221.397 108.732V105.714H217.403V108.637C217.403 108.854 217.443 109.034 217.53 109.175C217.614 109.316 217.742 109.424 217.913 109.5C218.04 109.566 218.176 109.611 218.325 109.644C218.474 109.677 218.627 109.7 218.786 109.713V110.347H214.4V109.713C214.539 109.7 214.682 109.687 214.831 109.674C214.981 109.661 215.108 109.635 215.217 109.595C215.388 109.54 215.515 109.437 215.596 109.293C215.676 109.149 215.719 108.962 215.719 108.732V102.58C215.719 102.367 215.676 102.189 215.592 102.045C215.505 101.901 215.378 101.792 215.21 101.714C215.052 101.638 214.897 101.586 214.751 101.56C214.602 101.534 214.462 101.517 214.335 101.504V100.868H218.72V101.504C218.546 101.517 218.391 101.53 218.26 101.55C218.13 101.569 218.012 101.593 217.903 101.619C217.733 101.668 217.608 101.77 217.524 101.92C217.443 102.072 217.403 102.259 217.403 102.485V104.926H221.397V102.58C221.397 102.367 221.354 102.189 221.269 102.045C221.183 101.901 221.055 101.792 220.888 101.714C220.729 101.638 220.577 101.586 220.428 101.56C220.279 101.534 220.139 101.517 220.012 101.504V100.868H224.4V101.504C224.223 101.517 224.071 101.53 223.941 101.55C223.81 101.569 223.689 101.593 223.58 101.619C223.41 101.668 223.285 101.77 223.202 101.92C223.12 102.072 223.08 102.259 223.08 102.485V108.637C223.08 108.861 223.115 109.04 223.189 109.179C223.26 109.316 223.385 109.424 223.561 109.5C223.689 109.566 223.825 109.611 223.975 109.644C224.124 109.677 224.277 109.7 224.435 109.713V110.347ZM235.78 110.347H231.395V109.713C231.534 109.7 231.678 109.687 231.826 109.674C231.975 109.661 232.105 109.635 232.214 109.595C232.386 109.54 232.513 109.437 232.605 109.293C232.696 109.149 232.742 108.962 232.742 108.732V105.714H228.749V108.637C228.749 108.854 228.789 109.034 228.876 109.175C228.96 109.316 229.087 109.424 229.258 109.5C229.385 109.566 229.522 109.611 229.671 109.644C229.82 109.677 229.972 109.7 230.131 109.713V110.347H225.745V109.713C225.885 109.7 226.028 109.687 226.177 109.674C226.326 109.661 226.453 109.635 226.562 109.595C226.733 109.54 226.86 109.437 226.941 109.293C227.022 109.149 227.065 108.962 227.065 108.732V102.58C227.065 102.367 227.022 102.189 226.938 102.045C226.851 101.901 226.723 101.792 226.556 101.714C226.397 101.638 226.242 101.586 226.096 101.56C225.947 101.534 225.807 101.517 225.68 101.504V100.868H230.065V101.504C229.891 101.517 229.736 101.53 229.606 101.55C229.475 101.569 229.357 101.593 229.248 101.619C229.078 101.668 228.954 101.77 228.87 101.92C228.789 102.072 228.749 102.259 228.749 102.485V104.926H232.742V102.58C232.742 102.367 232.699 102.189 232.614 102.045C232.528 101.901 232.401 101.792 232.233 101.714C232.074 101.638 231.922 101.586 231.773 101.56C231.624 101.534 231.485 101.517 231.357 101.504V100.868H235.745V101.504C235.568 101.517 235.416 101.53 235.286 101.55C235.155 101.569 235.035 101.593 234.926 101.619C234.755 101.668 234.63 101.77 234.547 101.92C234.466 102.072 234.425 102.259 234.425 102.485V108.637C234.425 108.861 234.46 109.04 234.534 109.179C234.606 109.316 234.73 109.424 234.907 109.5C235.035 109.566 235.171 109.611 235.32 109.644C235.469 109.677 235.622 109.7 235.78 109.713V110.347ZM245.815 105.51C245.815 106.176 245.715 106.832 245.516 107.476C245.314 108.122 245.029 108.667 244.659 109.116C244.244 109.628 243.755 110.008 243.206 110.261C242.653 110.511 242.035 110.635 241.349 110.635C240.777 110.635 240.233 110.52 239.718 110.294C239.203 110.068 238.746 109.733 238.345 109.3C237.951 108.87 237.637 108.345 237.404 107.728C237.171 107.108 237.054 106.415 237.054 105.645C237.054 104.165 237.46 102.954 238.277 102.013C239.094 101.071 240.162 100.599 241.485 100.599C242.74 100.599 243.777 101.048 244.59 101.94C245.407 102.833 245.815 104.024 245.815 105.51ZM243.932 105.53C243.932 105.051 243.886 104.542 243.796 104.007C243.705 103.473 243.569 103.02 243.386 102.646C243.193 102.249 242.938 101.931 242.621 101.691C242.305 101.452 241.92 101.33 241.467 101.33C241 101.33 240.6 101.452 240.271 101.695C239.938 101.937 239.672 102.272 239.463 102.695C239.271 103.085 239.134 103.532 239.056 104.031C238.976 104.532 238.938 105.015 238.938 105.484C238.938 106.097 238.985 106.665 239.078 107.19C239.171 107.712 239.324 108.177 239.529 108.588C239.734 108.998 239.994 109.32 240.305 109.553C240.619 109.789 241.007 109.904 241.467 109.904C242.225 109.904 242.824 109.516 243.268 108.742C243.712 107.964 243.932 106.895 243.932 105.53ZM251.265 110.596C249.967 110.596 248.951 110.14 248.215 109.231C247.482 108.322 247.115 107.101 247.115 105.569C247.115 104.903 247.215 104.28 247.411 103.699C247.61 103.118 247.896 102.593 248.271 102.118C248.628 101.664 249.078 101.298 249.619 101.018C250.156 100.74 250.746 100.599 251.383 100.599C252.262 100.599 252.98 100.821 253.529 101.267C254.082 101.714 254.358 102.321 254.358 103.089C254.358 103.411 254.287 103.693 254.141 103.938C253.995 104.188 253.756 104.309 253.42 104.309C253.063 104.309 252.786 104.214 252.588 104.02C252.393 103.83 252.293 103.614 252.293 103.378C252.293 103.089 252.331 102.793 252.402 102.489C252.476 102.183 252.516 101.96 252.528 101.819C252.421 101.622 252.259 101.488 252.041 101.422C251.827 101.353 251.594 101.32 251.346 101.32C251.057 101.32 250.777 101.386 250.514 101.517C250.249 101.648 249.995 101.891 249.746 102.242C249.52 102.564 249.34 102.997 249.2 103.541C249.06 104.086 248.988 104.736 248.988 105.491C248.988 106.685 249.24 107.656 249.74 108.411C250.24 109.162 250.898 109.54 251.709 109.54C252.3 109.54 252.793 109.388 253.191 109.086C253.585 108.785 253.955 108.335 254.293 107.732L254.877 108.135C254.476 108.893 253.948 109.49 253.293 109.933C252.637 110.376 251.96 110.596 251.265 110.596ZM263.495 103.905H262.939C262.883 103.725 262.806 103.515 262.697 103.272C262.591 103.029 262.476 102.797 262.349 102.58C262.216 102.344 262.063 102.134 261.899 101.95C261.731 101.766 261.557 101.664 261.374 101.638C261.187 101.619 260.977 101.602 260.746 101.596C260.517 101.586 260.318 101.58 260.156 101.58V108.637C260.156 108.854 260.197 109.034 260.284 109.175C260.368 109.316 260.496 109.424 260.665 109.5C260.799 109.566 260.948 109.611 261.119 109.644C261.29 109.677 261.458 109.7 261.619 109.713V110.347H257.053V109.713C257.19 109.7 257.352 109.687 257.529 109.674C257.709 109.661 257.852 109.635 257.964 109.595C258.132 109.54 258.259 109.437 258.34 109.293C258.42 109.149 258.464 108.962 258.464 108.732V101.58C258.268 101.586 258.05 101.596 257.809 101.602C257.566 101.612 257.374 101.625 257.234 101.638C257.075 101.651 256.908 101.757 256.731 101.953C256.551 102.154 256.395 102.361 256.262 102.58C256.134 102.797 256.017 103.04 255.905 103.305C255.796 103.571 255.722 103.771 255.678 103.905H255.123V100.868H263.495V103.905ZM270.719 107.387C270.719 106.849 270.532 106.386 270.163 106.005C269.793 105.625 269.253 105.435 268.545 105.435C268.247 105.435 268.002 105.445 267.806 105.467C267.613 105.491 267.464 105.5 267.362 105.5V108.887C267.362 109.156 267.452 109.355 267.638 109.49C267.824 109.624 268.16 109.694 268.645 109.694C269.057 109.694 269.399 109.622 269.675 109.481C269.952 109.339 270.163 109.162 270.309 108.942C270.468 108.706 270.573 108.46 270.632 108.204C270.688 107.948 270.719 107.676 270.719 107.387ZM272.558 107.433C272.558 107.941 272.452 108.378 272.247 108.745C272.042 109.116 271.775 109.418 271.446 109.655C271.12 109.884 270.753 110.058 270.356 110.173C269.955 110.288 269.536 110.347 269.098 110.347H264.368V109.713C264.508 109.7 264.65 109.687 264.799 109.674C264.949 109.661 265.076 109.635 265.184 109.595C265.356 109.54 265.483 109.437 265.564 109.293C265.644 109.149 265.688 108.962 265.688 108.732V102.58C265.688 102.367 265.644 102.189 265.561 102.045C265.474 101.901 265.346 101.792 265.178 101.714C265.02 101.638 264.865 101.586 264.719 101.56C264.57 101.534 264.43 101.517 264.303 101.504V100.868H268.824V101.504C268.645 101.517 268.468 101.53 268.293 101.547C268.12 101.563 267.976 101.586 267.862 101.619C267.672 101.675 267.542 101.786 267.471 101.944C267.396 102.105 267.362 102.285 267.362 102.485V104.743C267.604 104.736 267.812 104.73 267.983 104.719C268.157 104.71 268.409 104.703 268.734 104.703C269.325 104.703 269.84 104.752 270.288 104.854C270.731 104.952 271.12 105.103 271.446 105.31C271.797 105.526 272.07 105.806 272.266 106.146C272.458 106.485 272.558 106.914 272.558 107.433ZM284.592 107.558C284.592 106.997 284.393 106.55 283.999 106.222C283.605 105.897 283.042 105.733 282.306 105.733C281.986 105.733 281.731 105.74 281.548 105.753C281.362 105.766 281.219 105.769 281.117 105.769V108.906C281.117 109.156 281.217 109.349 281.414 109.487C281.617 109.624 281.921 109.694 282.334 109.694C282.772 109.694 283.141 109.631 283.446 109.51C283.747 109.388 283.986 109.221 284.154 109.011C284.318 108.804 284.434 108.581 284.495 108.338C284.561 108.093 284.592 107.833 284.592 107.558ZM286.412 107.702C286.412 108.171 286.313 108.575 286.11 108.913C285.911 109.254 285.636 109.533 285.281 109.75C284.961 109.95 284.595 110.097 284.182 110.199C283.769 110.297 283.331 110.347 282.862 110.347H278.123V109.713C278.263 109.7 278.405 109.687 278.554 109.674C278.704 109.661 278.831 109.635 278.94 109.595C279.111 109.54 279.238 109.437 279.319 109.293C279.399 109.149 279.443 108.962 279.443 108.732V102.58C279.443 102.367 279.399 102.189 279.316 102.045C279.229 101.901 279.101 101.792 278.933 101.714C278.775 101.638 278.619 101.586 278.474 101.56C278.325 101.534 278.185 101.517 278.058 101.504V100.868C278.598 100.868 279.266 100.864 280.064 100.857C280.862 100.851 281.694 100.848 282.561 100.848C283.024 100.848 283.452 100.884 283.85 100.949C284.247 101.018 284.601 101.13 284.909 101.291C285.232 101.458 285.48 101.684 285.657 101.97C285.832 102.255 285.921 102.6 285.921 103.003C285.921 103.636 285.732 104.139 285.359 104.506C284.986 104.877 284.499 105.127 283.89 105.261V105.365C284.2 105.412 284.505 105.487 284.807 105.589C285.104 105.691 285.375 105.832 285.611 106.012C285.852 106.196 286.048 106.426 286.191 106.698C286.337 106.97 286.412 107.305 286.412 107.702ZM284.117 103.079C284.117 102.758 284.06 102.498 283.949 102.295C283.837 102.094 283.688 101.937 283.499 101.819C283.312 101.704 283.101 101.625 282.869 101.586C282.632 101.543 282.393 101.523 282.145 101.523C281.986 101.523 281.812 101.527 281.62 101.536C281.43 101.547 281.263 101.553 281.117 101.56V105.021H281.999C282.418 105.021 282.769 104.968 283.055 104.867C283.337 104.765 283.555 104.628 283.7 104.454C283.853 104.286 283.959 104.09 284.024 103.856C284.086 103.627 284.117 103.367 284.117 103.079ZM298.527 108.607C298.741 108.171 298.897 107.705 298.993 107.213C299.089 106.721 299.139 106.153 299.139 105.51C299.139 104.999 299.098 104.493 299.021 103.998C298.94 103.502 298.807 103.056 298.62 102.665C298.425 102.268 298.179 101.957 297.878 101.73C297.576 101.501 297.192 101.389 296.716 101.389C296.226 101.389 295.815 101.514 295.49 101.763C295.16 102.013 294.896 102.337 294.688 102.734C294.496 103.125 294.356 103.568 294.269 104.063C294.185 104.562 294.142 105.044 294.142 105.51C294.142 106.255 294.191 106.882 294.294 107.397C294.393 107.908 294.536 108.345 294.726 108.702C294.924 109.093 295.179 109.392 295.49 109.595C295.8 109.802 296.185 109.904 296.645 109.904C297.064 109.904 297.431 109.789 297.751 109.553C298.068 109.32 298.328 109.004 298.527 108.607ZM293.207 103.318L293.278 103.338C293.571 102.57 294.017 101.931 294.62 101.422C295.223 100.914 295.931 100.658 296.744 100.658C297.424 100.658 298.033 100.775 298.573 101.018C299.114 101.258 299.564 101.596 299.931 102.032C300.288 102.456 300.558 102.964 300.745 103.561C300.928 104.155 301.021 104.805 301.021 105.5C301.021 106.186 300.922 106.849 300.719 107.482C300.521 108.115 300.229 108.66 299.847 109.116C299.446 109.595 298.977 109.969 298.437 110.235C297.896 110.5 297.257 110.635 296.518 110.635C295.958 110.635 295.422 110.517 294.902 110.277C294.384 110.041 293.934 109.684 293.552 109.201C293.157 108.716 292.847 108.086 292.62 107.308C292.39 106.534 292.278 105.625 292.278 104.578C292.278 103.574 292.343 102.682 292.474 101.901C292.605 101.123 292.769 100.408 292.968 99.7519C293.241 98.8498 293.676 98.1181 294.269 97.5568C294.865 96.9955 295.595 96.6902 296.462 96.6382C296.893 96.6115 297.35 96.589 297.831 96.563C298.316 96.5363 298.691 96.5102 298.965 96.4835C299.213 96.467 299.458 96.3918 299.701 96.2611C299.943 96.1296 300.189 95.8997 300.431 95.5718L300.95 95.9654C300.816 96.159 300.636 96.4082 300.406 96.7169C300.179 97.0222 299.98 97.2714 299.813 97.4548C299.673 97.6157 299.555 97.7471 299.455 97.8491C299.36 97.9538 299.266 98.0257 299.173 98.0722C299.077 98.1277 298.958 98.1701 298.819 98.1968C298.679 98.2228 298.499 98.2426 298.272 98.2522C298.011 98.2652 297.694 98.2885 297.322 98.3213C296.949 98.3543 296.626 98.3741 296.353 98.3803C295.934 98.3967 295.573 98.4987 295.272 98.6821C294.968 98.8628 294.707 99.0826 294.49 99.3385C294.269 99.5973 294.095 99.8834 293.961 100.195C293.829 100.51 293.725 100.786 293.651 101.022C293.536 101.425 293.44 101.816 293.365 102.189C293.287 102.564 293.235 102.941 293.207 103.318ZM310.291 108.115C309.916 108.874 309.412 109.474 308.782 109.924C308.152 110.373 307.425 110.596 306.607 110.596C305.884 110.596 305.253 110.461 304.711 110.192C304.167 109.924 303.72 109.559 303.369 109.097C303.017 108.637 302.754 108.096 302.58 107.482C302.409 106.865 302.322 106.216 302.322 105.53C302.322 104.916 302.415 104.313 302.598 103.719C302.785 103.125 303.055 102.593 303.415 102.118C303.76 101.664 304.188 101.298 304.701 101.018C305.213 100.74 305.788 100.599 306.425 100.599C307.08 100.599 307.642 100.707 308.108 100.927C308.577 101.143 308.956 101.441 309.245 101.819C309.524 102.18 309.732 102.603 309.869 103.089C310.006 103.578 310.074 104.106 310.074 104.673V105.31H304.132C304.132 105.93 304.188 106.494 304.3 107C304.412 107.509 304.589 107.951 304.834 108.338C305.071 108.709 305.378 109.001 305.76 109.218C306.142 109.431 306.598 109.54 307.127 109.54C307.667 109.54 308.133 109.405 308.524 109.139C308.912 108.874 309.291 108.394 309.655 107.702L310.291 108.115ZM308.282 104.503C308.282 104.142 308.254 103.758 308.195 103.348C308.136 102.938 308.046 102.597 307.918 102.321C307.779 102.026 307.586 101.786 307.344 101.599C307.102 101.412 306.787 101.32 306.406 101.32C305.769 101.32 305.241 101.599 304.818 102.16C304.396 102.721 304.17 103.502 304.132 104.503H308.282Z" fill="#9C9E9F"/>
<path fill-rule="evenodd" clip-rule="evenodd" d="M318.745 107.606C318.745 108.499 318.369 109.218 317.62 109.769C316.872 110.321 315.894 110.596 314.686 110.596C314.145 110.596 313.655 110.53 313.217 110.399C312.776 110.268 312.409 110.091 312.111 109.867C311.825 109.641 311.608 109.388 311.456 109.106C311.303 108.824 311.229 108.516 311.229 108.184C311.229 107.895 311.3 107.659 311.447 107.472C311.592 107.285 311.819 107.193 312.129 107.193C312.455 107.193 312.704 107.285 312.876 107.472C313.045 107.659 313.13 107.853 313.13 108.06C313.13 108.243 313.104 108.466 313.052 108.722C313.002 108.978 312.955 109.179 312.921 109.32C313.077 109.483 313.31 109.622 313.611 109.726C313.915 109.831 314.27 109.884 314.677 109.884C315.307 109.884 315.831 109.687 316.251 109.29C316.67 108.893 316.878 108.332 316.878 107.606C316.878 107.39 316.85 107.167 316.798 106.944C316.741 106.721 316.639 106.521 316.487 106.347C316.335 106.176 316.13 106.035 315.869 105.923C315.608 105.815 315.267 105.762 314.841 105.762H313.884V104.867H314.667C315.397 104.867 315.906 104.706 316.195 104.381C316.487 104.057 316.633 103.558 316.633 102.879C316.633 102.403 316.493 102.026 316.214 101.747C315.934 101.468 315.549 101.33 315.058 101.33C314.701 101.33 314.381 101.412 314.105 101.576C313.825 101.737 313.568 101.96 313.328 102.242C313.117 102.498 312.931 102.8 312.77 103.141C312.611 103.486 312.478 103.808 312.375 104.109H311.766L311.819 100.677H312.428L312.757 101.205C313.061 101.058 313.425 100.92 313.853 100.792C314.282 100.664 314.76 100.599 315.295 100.599C315.962 100.599 316.506 100.684 316.925 100.854C317.342 101.025 317.667 101.228 317.897 101.465C318.121 101.695 318.273 101.94 318.353 102.2C318.431 102.458 318.471 102.672 318.471 102.839C318.471 103.056 318.437 103.279 318.375 103.508C318.31 103.735 318.192 103.951 318.015 104.155C317.847 104.362 317.611 104.552 317.31 104.73C317.012 104.903 316.633 105.041 316.176 105.136V105.261C316.462 105.274 316.754 105.323 317.056 105.405C317.357 105.491 317.633 105.621 317.887 105.799C318.161 105.999 318.372 106.245 318.521 106.543C318.67 106.843 318.745 107.196 318.745 107.606ZM328.897 105.51C328.897 106.176 328.798 106.832 328.599 107.476C328.397 108.122 328.112 108.667 327.742 109.116C327.326 109.628 326.838 110.008 326.289 110.261C325.735 110.511 325.117 110.635 324.431 110.635C323.86 110.635 323.316 110.52 322.801 110.294C322.285 110.068 321.829 109.733 321.428 109.3C321.034 108.87 320.72 108.345 320.487 107.728C320.254 107.108 320.136 106.415 320.136 105.645C320.136 104.165 320.543 102.954 321.359 102.013C322.176 101.071 323.245 100.599 324.568 100.599C325.823 100.599 326.86 101.048 327.673 101.94C328.49 102.833 328.897 104.024 328.897 105.51ZM327.015 105.53C327.015 105.051 326.968 104.542 326.878 104.007C326.788 103.473 326.651 103.02 326.469 102.646C326.276 102.249 326.021 101.931 325.704 101.691C325.388 101.452 325.003 101.33 324.549 101.33C324.083 101.33 323.683 101.452 323.354 101.695C323.021 101.937 322.755 102.272 322.546 102.695C322.353 103.085 322.217 103.532 322.139 104.031C322.058 104.532 322.021 105.015 322.021 105.484C322.021 106.097 322.067 106.665 322.161 107.19C322.254 107.712 322.407 108.177 322.611 108.588C322.816 108.998 323.077 109.32 323.388 109.553C323.702 109.789 324.09 109.904 324.549 109.904C325.307 109.904 325.906 109.516 326.351 108.742C326.795 107.964 327.015 106.895 327.015 105.53ZM340.115 110.347H335.73V109.713C335.869 109.7 336.013 109.687 336.158 109.674C336.304 109.661 336.431 109.635 336.54 109.595C336.711 109.54 336.842 109.437 336.932 109.293C337.022 109.149 337.069 108.962 337.069 108.732V101.658H333.23V108.637C333.23 108.854 333.27 109.034 333.357 109.175C333.441 109.316 333.568 109.424 333.739 109.5C333.866 109.566 334.003 109.611 334.146 109.644C334.292 109.677 334.444 109.7 334.602 109.713V110.347H330.217V109.713C330.357 109.7 330.499 109.687 330.649 109.674C330.798 109.661 330.925 109.635 331.034 109.595C331.205 109.54 331.332 109.437 331.413 109.293C331.493 109.149 331.537 108.962 331.537 108.732V102.58C331.537 102.367 331.493 102.189 331.41 102.045C331.323 101.901 331.195 101.792 331.027 101.714C330.87 101.638 330.714 101.586 330.568 101.56C330.419 101.534 330.279 101.517 330.152 101.504V100.868H340.08V101.504C339.904 101.517 339.752 101.53 339.621 101.55C339.491 101.569 339.37 101.593 339.261 101.619C339.09 101.668 338.966 101.77 338.882 101.92C338.801 102.072 338.761 102.259 338.761 102.485V108.637C338.761 108.861 338.799 109.04 338.87 109.179C338.941 109.316 339.066 109.424 339.242 109.5C339.37 109.566 339.509 109.611 339.656 109.644C339.805 109.677 339.96 109.7 340.115 109.713V110.347ZM349.904 110.173C349.618 110.281 349.37 110.37 349.155 110.438C348.939 110.504 348.696 110.54 348.423 110.54C347.948 110.54 347.572 110.422 347.289 110.189C347.007 109.953 346.827 109.611 346.749 109.165H346.693C346.299 109.624 345.876 109.979 345.422 110.222C344.972 110.465 344.43 110.586 343.792 110.586C343.119 110.586 342.566 110.37 342.13 109.933C341.696 109.496 341.479 108.926 341.479 108.224C341.479 107.856 341.528 107.531 341.625 107.242C341.724 106.954 341.867 106.695 342.062 106.461C342.215 106.271 342.414 106.101 342.662 105.95C342.91 105.799 343.146 105.678 343.364 105.589C343.637 105.48 344.19 105.277 345.022 104.982C345.858 104.686 346.419 104.457 346.712 104.289V103.338C346.712 103.256 346.696 103.095 346.662 102.859C346.627 102.623 346.556 102.396 346.447 102.187C346.326 101.947 346.156 101.74 345.932 101.567C345.711 101.389 345.398 101.3 344.991 101.3C344.712 101.3 344.454 101.35 344.215 101.452C343.976 101.55 343.805 101.655 343.708 101.763C343.708 101.891 343.736 102.078 343.795 102.33C343.854 102.58 343.882 102.81 343.882 103.023C343.882 103.246 343.786 103.45 343.597 103.636C343.404 103.824 343.14 103.916 342.798 103.916C342.497 103.916 342.274 103.801 342.13 103.574C341.988 103.348 341.916 103.092 341.916 102.81C341.916 102.515 342.016 102.233 342.211 101.964C342.411 101.695 342.665 101.455 342.982 101.245C343.255 101.064 343.585 100.914 343.972 100.786C344.361 100.661 344.739 100.599 345.109 100.599C345.618 100.599 346.063 100.638 346.444 100.71C346.823 100.782 347.166 100.943 347.476 101.186C347.786 101.422 348.02 101.743 348.18 102.15C348.342 102.557 348.423 103.082 348.423 103.722C348.423 104.641 348.414 105.451 348.395 106.159C348.376 106.869 348.367 107.643 348.367 108.483C348.367 108.732 348.407 108.929 348.491 109.077C348.572 109.225 348.7 109.349 348.867 109.454C348.96 109.51 349.103 109.543 349.299 109.549C349.497 109.556 349.699 109.559 349.904 109.559V110.173ZM346.73 105.096C346.215 105.257 345.761 105.415 345.374 105.569C344.985 105.723 344.624 105.914 344.293 106.146C343.988 106.363 343.749 106.622 343.572 106.921C343.398 107.216 343.308 107.571 343.308 107.981C343.308 108.512 343.441 108.906 343.705 109.156C343.969 109.405 344.305 109.529 344.708 109.529C345.14 109.529 345.519 109.418 345.848 109.198C346.174 108.978 346.451 108.716 346.674 108.414L346.73 105.096ZM354.945 110.596C353.647 110.596 352.631 110.14 351.895 109.231C351.162 108.322 350.796 107.101 350.796 105.569C350.796 104.903 350.895 104.28 351.091 103.699C351.29 103.118 351.576 102.593 351.951 102.118C352.309 101.664 352.758 101.298 353.299 101.018C353.836 100.74 354.427 100.599 355.063 100.599C355.942 100.599 356.66 100.821 357.209 101.267C357.762 101.714 358.039 102.321 358.039 103.089C358.039 103.411 357.967 103.693 357.821 103.938C357.675 104.188 357.436 104.309 357.101 104.309C356.743 104.309 356.467 104.214 356.268 104.02C356.073 103.83 355.973 103.614 355.973 103.378C355.973 103.089 356.011 102.793 356.082 102.489C356.157 102.183 356.197 101.96 356.209 101.819C356.101 101.622 355.939 101.488 355.722 101.422C355.507 101.353 355.275 101.32 355.026 101.32C354.737 101.32 354.457 101.386 354.194 101.517C353.929 101.648 353.675 101.891 353.427 102.242C353.2 102.564 353.02 102.997 352.88 103.541C352.74 104.086 352.668 104.736 352.668 105.491C352.668 106.685 352.92 107.656 353.42 108.411C353.92 109.162 354.578 109.54 355.389 109.54C355.98 109.54 356.473 109.388 356.871 109.086C357.265 108.785 357.635 108.335 357.973 107.732L358.557 108.135C358.156 108.893 357.628 109.49 356.974 109.933C356.317 110.376 355.64 110.596 354.945 110.596ZM369.312 110.347H364.927V109.713C365.066 109.7 365.21 109.687 365.358 109.674C365.507 109.661 365.638 109.635 365.747 109.595C365.918 109.54 366.045 109.437 366.138 109.293C366.228 109.149 366.274 108.962 366.274 108.732V105.714H362.281V108.637C362.281 108.854 362.321 109.034 362.408 109.175C362.492 109.316 362.619 109.424 362.79 109.5C362.917 109.566 363.054 109.611 363.203 109.644C363.352 109.677 363.504 109.7 363.663 109.713V110.347H359.277V109.713C359.417 109.7 359.56 109.687 359.709 109.674C359.858 109.661 359.985 109.635 360.094 109.595C360.265 109.54 360.392 109.437 360.473 109.293C360.554 109.149 360.597 108.962 360.597 108.732V102.58C360.597 102.367 360.554 102.189 360.47 102.045C360.383 101.901 360.255 101.792 360.088 101.714C359.929 101.638 359.774 101.586 359.629 101.56C359.479 101.534 359.339 101.517 359.212 101.504V100.868H363.597V101.504C363.424 101.517 363.268 101.53 363.138 101.55C363.007 101.569 362.889 101.593 362.78 101.619C362.61 101.668 362.486 101.77 362.402 101.92C362.321 102.072 362.281 102.259 362.281 102.485V104.926H366.274V102.58C366.274 102.367 366.231 102.189 366.147 102.045C366.06 101.901 365.933 101.792 365.765 101.714C365.606 101.638 365.454 101.586 365.305 101.56C365.157 101.534 365.017 101.517 364.889 101.504V100.868H369.277V101.504C369.1 101.517 368.948 101.53 368.818 101.55C368.688 101.569 368.567 101.593 368.458 101.619C368.287 101.668 368.162 101.77 368.079 101.92C367.998 102.072 367.958 102.259 367.958 102.485V108.637C367.958 108.861 367.992 109.04 368.066 109.179C368.138 109.316 368.262 109.424 368.439 109.5C368.567 109.566 368.703 109.611 368.853 109.644C369.001 109.677 369.154 109.7 369.312 109.713V110.347ZM379.347 105.51C379.347 106.176 379.247 106.832 379.048 107.476C378.846 108.122 378.561 108.667 378.191 109.116C377.776 109.628 377.287 110.008 376.738 110.261C376.185 110.511 375.567 110.635 374.881 110.635C374.309 110.635 373.765 110.52 373.25 110.294C372.735 110.068 372.278 109.733 371.877 109.3C371.483 108.87 371.169 108.345 370.936 107.728C370.703 107.108 370.586 106.415 370.586 105.645C370.586 104.165 370.992 102.954 371.809 102.013C372.626 101.071 373.694 100.599 375.017 100.599C376.272 100.599 377.309 101.048 378.123 101.94C378.939 102.833 379.347 104.024 379.347 105.51ZM377.464 105.53C377.464 105.051 377.418 104.542 377.328 104.007C377.238 103.473 377.101 103.02 376.919 102.646C376.725 102.249 376.471 101.931 376.153 101.691C375.837 101.452 375.452 101.33 374.999 101.33C374.533 101.33 374.132 101.452 373.803 101.695C373.471 101.937 373.204 102.272 372.995 102.695C372.803 103.085 372.666 103.532 372.588 104.031C372.508 104.532 372.471 105.015 372.471 105.484C372.471 106.097 372.517 106.665 372.61 107.19C372.704 107.712 372.856 108.177 373.061 108.588C373.266 108.998 373.526 109.32 373.837 109.553C374.151 109.789 374.539 109.904 374.999 109.904C375.757 109.904 376.356 109.516 376.8 108.742C377.244 107.964 377.464 106.895 377.464 105.53ZM384.797 110.596C383.499 110.596 382.483 110.14 381.747 109.231C381.014 108.322 380.647 107.101 380.647 105.569C380.647 104.903 380.747 104.28 380.943 103.699C381.142 103.118 381.428 102.593 381.803 102.118C382.161 101.664 382.611 101.298 383.151 101.018C383.688 100.74 384.278 100.599 384.915 100.599C385.794 100.599 386.512 100.821 387.061 101.267C387.614 101.714 387.89 102.321 387.89 103.089C387.89 103.411 387.819 103.693 387.673 103.938C387.527 104.188 387.288 104.309 386.952 104.309C386.595 104.309 386.319 104.214 386.12 104.02C385.925 103.83 385.825 103.614 385.825 103.378C385.825 103.089 385.863 102.793 385.934 102.489C386.009 102.183 386.048 101.96 386.06 101.819C385.953 101.622 385.791 101.488 385.574 101.422C385.359 101.353 385.126 101.32 384.878 101.32C384.589 101.32 384.309 101.386 384.046 101.517C383.781 101.648 383.527 101.891 383.279 102.242C383.052 102.564 382.872 102.997 382.732 103.541C382.592 104.086 382.52 104.736 382.52 105.491C382.52 106.685 382.772 107.656 383.272 108.411C383.772 109.162 384.43 109.54 385.241 109.54C385.832 109.54 386.325 109.388 386.723 109.086C387.117 108.785 387.487 108.335 387.825 107.732L388.409 108.135C388.008 108.893 387.48 109.49 386.826 109.933C386.169 110.376 385.492 110.596 384.797 110.596ZM397.027 103.905H396.471C396.416 103.725 396.338 103.515 396.229 103.272C396.123 103.029 396.008 102.797 395.881 102.58C395.748 102.344 395.595 102.134 395.431 101.95C395.263 101.766 395.089 101.664 394.906 101.638C394.719 101.619 394.509 101.602 394.278 101.596C394.049 101.586 393.85 101.58 393.688 101.58V108.637C393.688 108.854 393.729 109.034 393.816 109.175C393.9 109.316 394.028 109.424 394.197 109.5C394.331 109.566 394.48 109.611 394.651 109.644C394.822 109.677 394.99 109.7 395.151 109.713V110.347H390.585V109.713C390.722 109.7 390.884 109.687 391.061 109.674C391.241 109.661 391.384 109.635 391.496 109.595C391.664 109.54 391.791 109.437 391.872 109.293C391.952 109.149 391.996 108.962 391.996 108.732V101.58C391.8 101.586 391.583 101.596 391.341 101.602C391.098 101.612 390.906 101.625 390.766 101.638C390.607 101.651 390.44 101.757 390.263 101.953C390.083 102.154 389.927 102.361 389.794 102.58C389.666 102.797 389.549 103.04 389.437 103.305C389.328 103.571 389.254 103.771 389.21 103.905H388.655V100.868H397.027V103.905ZM408 110.347H403.64V109.713C403.779 109.7 403.925 109.687 404.075 109.674C404.22 109.661 404.35 109.635 404.459 109.595C404.63 109.54 404.761 109.437 404.851 109.293C404.941 109.149 404.987 108.962 404.987 108.732V103.751L400.857 108.473V108.637C400.857 108.854 400.9 109.034 400.984 109.175C401.068 109.316 401.195 109.424 401.366 109.5C401.499 109.566 401.639 109.611 401.789 109.644C401.938 109.677 402.093 109.7 402.257 109.713V110.347H397.9V109.713C398.04 109.7 398.182 109.687 398.331 109.674C398.481 109.661 398.608 109.635 398.717 109.595C398.888 109.54 399.015 109.437 399.096 109.293C399.176 109.149 399.22 108.962 399.22 108.732V102.58C399.22 102.367 399.176 102.189 399.093 102.045C399.006 101.901 398.878 101.792 398.71 101.714C398.552 101.638 398.397 101.586 398.251 101.56C398.102 101.534 397.962 101.517 397.835 101.504V100.868H402.196V101.504C402.018 101.517 401.866 101.53 401.735 101.55C401.605 101.569 401.484 101.593 401.375 101.619C401.204 101.668 401.08 101.77 400.996 101.92C400.916 102.072 400.875 102.259 400.875 102.485V107.387L405.006 102.656C405.006 102.374 404.963 102.167 404.879 102.032C404.795 101.898 404.667 101.792 404.497 101.714C404.338 101.638 404.182 101.586 404.028 101.56C403.872 101.534 403.732 101.517 403.605 101.504V100.868H407.962V101.504C407.785 101.517 407.633 101.53 407.503 101.55C407.372 101.569 407.254 101.593 407.143 101.619C406.975 101.668 406.847 101.77 406.767 101.92C406.683 102.072 406.643 102.259 406.643 102.485V108.637C406.643 108.861 406.68 109.04 406.752 109.179C406.826 109.316 406.949 109.424 407.127 109.5C407.254 109.566 407.391 109.611 407.54 109.644C407.689 109.677 407.841 109.7 408 109.713V110.347Z" fill="#9C9E9F"/>
<path fill-rule="evenodd" clip-rule="evenodd" d="M114.418 37.0778C120.813 37.0778 127.108 36.6581 133.337 35.8534C133.337 37.1476 133.237 39.4911 133.039 42.919C132.84 46.0674 132.74 49.9851 132.74 54.707C132.74 57.7153 132.575 60.7582 132.276 63.8365H129.924C129.792 58.2047 128.466 53.5877 125.948 49.8798C123.364 46.1372 117.897 44.2485 109.548 44.2485H106.72C106.311 44.3433 105.589 44.4212 104.48 44.4769C93.2385 45.0413 87.5872 50.756 87.5279 61.6203L87.5147 61.6347V117.598C87.5147 126.028 88.641 132.324 90.9274 136.557C93.1803 140.824 96.6591 143.448 101.397 144.462V146.316C93.238 145.743 85.8761 145.194 77.8714 145.194V36.9862C89.9918 36.9862 102.202 37.0778 114.418 37.0778ZM64.4061 61.7147C64.3467 50.8504 58.6956 45.1358 47.4537 44.5713C45.9962 44.4981 45.2032 44.3867 44.919 44.2485H39.7708C33.4756 44.2485 29.069 45.6124 26.4846 48.3406C23.8669 51.0694 21.7136 56.2459 19.9573 63.8365H17.7375C17.6712 62.9271 17.6382 61.9824 17.6382 60.9683C17.6382 59.569 17.7709 57.8549 18.0358 55.7211C18.7979 48.4108 19.1954 41.7998 19.1954 35.8534C22.6081 36.3433 26.8821 36.6229 32.0176 36.7629L40.2678 37.0778C51.6213 37.0778 62.8916 36.9865 74.157 36.9865C74.1661 36.9865 74.1728 36.9935 74.1728 37.0031V145.177C74.1728 145.187 74.1661 145.194 74.157 145.194C66.0325 145.194 58.9754 145.503 50.5389 146.316V144.462C55.9061 143.028 59.617 140.125 61.6051 135.752C63.5598 131.45 64.5207 124.279 64.5207 114.241V61.8394L64.4061 61.7147Z" fill="#008BD0"/>
<path fill-rule="evenodd" clip-rule="evenodd" d="M141.813 104.943H92.8718V100.61H141.813V104.943ZM92.8718 96.1097V91.7272H141.813V96.1097H92.8718ZM92.8718 87.2272V82.7806H141.813V87.2272H92.8718Z" fill="#008BD0"/>
<path fill-rule="evenodd" clip-rule="evenodd" d="M9.56787 91.4822V86.4884C26.1561 64.3672 42.7446 101.236 59.3329 79.1146V84.4564C59.3016 84.4974 59.2703 84.5353 59.2391 84.5758C59.0297 84.8485 58.8204 85.1146 58.6111 85.3694C55.0547 89.677 51.4984 91.3883 47.942 91.6538C39.2914 92.2615 30.6409 84.246 21.9904 84.3244C17.8495 84.302 13.7087 86.0885 9.56787 91.4822Z" fill="#008BD0"/>
<path fill-rule="evenodd" clip-rule="evenodd" d="M9.56787 100.509V95.6104C26.156 73.4893 42.7447 110.358 59.3329 88.2367V93.9658C42.7447 114.679 26.1561 79.0645 9.56787 100.509Z" fill="#008BD0"/>
<path fill-rule="evenodd" clip-rule="evenodd" d="M9.56787 110.135V104.493C26.1561 82.3719 42.7448 119.24 59.333 97.1191C59.333 99.0031 59.333 100.887 59.333 102.771C39.4993 123.709 25.9648 88.302 9.56787 110.135Z" fill="#008BD0"/>
<path fill-rule="evenodd" clip-rule="evenodd" d="M76.1343 0C118.182 0 152.269 35.9856 152.269 80.3763C152.269 124.767 118.182 160.753 76.1343 160.753C34.0864 160.753 0 124.767 0 80.3763C0 35.9856 34.0864 0 76.1343 0ZM76.1343 2.36343C116.946 2.36343 150.03 37.2909 150.03 80.3763C150.03 123.462 116.946 158.389 76.1343 158.389C35.3228 158.389 2.23871 123.462 2.23871 80.3763C2.23871 37.2909 35.3228 2.36343 76.1343 2.36343Z" fill="#008BD0"/>
<path d="M415.148 48V36.3636H419.511C420.405 36.3636 421.155 36.5189 421.761 36.8295C422.371 37.1402 422.831 37.5758 423.142 38.1364C423.456 38.6932 423.614 39.3428 423.614 40.0852C423.614 40.8314 423.455 41.4792 423.136 42.0284C422.822 42.5739 422.358 42.9962 421.744 43.2955C421.131 43.5909 420.377 43.7386 419.483 43.7386H416.375V41.9886H419.199C419.722 41.9886 420.15 41.9167 420.483 41.7727C420.816 41.625 421.063 41.411 421.222 41.1307C421.384 40.8466 421.466 40.4981 421.466 40.0852C421.466 39.6723 421.384 39.3201 421.222 39.0284C421.059 38.733 420.811 38.5095 420.477 38.358C420.144 38.2027 419.714 38.125 419.188 38.125H417.256V48H415.148ZM421.159 42.7273L424.04 48H421.688L418.858 42.7273H421.159Z" fill="#008BD0"/>
<circle cx="419" cy="43" r="10" stroke="#008BD0" stroke-width="2"/>
</svg>
