<svg width="153" height="161" viewBox="0 0 153 161" fill="none" xmlns="http://www.w3.org/2000/svg">
<path fill-rule="evenodd" clip-rule="evenodd" d="M114.418 37.0778C120.813 37.0778 127.108 36.6581 133.337 35.8534C133.337 37.1476 133.237 39.4911 133.039 42.919C132.84 46.0674 132.74 49.9851 132.74 54.707C132.74 57.7153 132.575 60.7582 132.276 63.8365H129.924C129.792 58.2047 128.466 53.5877 125.948 49.8798C123.364 46.1372 117.897 44.2485 109.548 44.2485H106.72C106.311 44.3433 105.589 44.4212 104.48 44.4769C93.2385 45.0413 87.5872 50.756 87.5279 61.6203L87.5147 61.6347V117.598C87.5147 126.028 88.641 132.324 90.9274 136.557C93.1803 140.824 96.6591 143.448 101.397 144.462V146.316C93.238 145.743 85.8761 145.194 77.8714 145.194V36.9862C89.9918 36.9862 102.202 37.0778 114.418 37.0778ZM64.4061 61.7147C64.3467 50.8504 58.6956 45.1358 47.4537 44.5713C45.9962 44.4981 45.2032 44.3867 44.919 44.2485H39.7708C33.4756 44.2485 29.069 45.6124 26.4846 48.3406C23.8669 51.0694 21.7136 56.2459 19.9573 63.8365H17.7375C17.6712 62.9271 17.6382 61.9824 17.6382 60.9683C17.6382 59.569 17.7709 57.8549 18.0358 55.7211C18.7979 48.4108 19.1954 41.7998 19.1954 35.8534C22.6081 36.3433 26.8821 36.6229 32.0176 36.7629L40.2678 37.0778C51.6213 37.0778 62.8916 36.9865 74.157 36.9865C74.1661 36.9865 74.1728 36.9935 74.1728 37.0031V145.177C74.1728 145.187 74.1661 145.194 74.157 145.194C66.0325 145.194 58.9754 145.503 50.5389 146.316V144.462C55.9061 143.028 59.617 140.125 61.6051 135.752C63.5598 131.45 64.5207 124.279 64.5207 114.241V61.8394L64.4061 61.7147Z" fill="#008BD0"/>
<path fill-rule="evenodd" clip-rule="evenodd" d="M141.812 104.943H92.8716V100.61H141.812V104.943ZM92.8716 96.1097V91.7272H141.812V96.1097H92.8716ZM92.8716 87.2272V82.7806H141.812V87.2272H92.8716Z" fill="#008BD0"/>
<path fill-rule="evenodd" clip-rule="evenodd" d="M9.56787 91.4822V86.4884C26.1561 64.3672 42.7446 101.236 59.3329 79.1146V84.4564C59.3016 84.4974 59.2703 84.5353 59.2391 84.5758C59.0297 84.8485 58.8204 85.1146 58.6111 85.3694C55.0547 89.677 51.4984 91.3883 47.942 91.6538C39.2914 92.2615 30.6409 84.246 21.9904 84.3244C17.8495 84.302 13.7087 86.0885 9.56787 91.4822Z" fill="#008BD0"/>
<path fill-rule="evenodd" clip-rule="evenodd" d="M9.56787 100.509V95.6104C26.156 73.4893 42.7447 110.358 59.3329 88.2367V93.9658C42.7447 114.679 26.1561 79.0645 9.56787 100.509Z" fill="#008BD0"/>
<path fill-rule="evenodd" clip-rule="evenodd" d="M9.56787 110.135V104.493C26.1561 82.3719 42.7448 119.24 59.333 97.1191C59.333 99.0031 59.333 100.887 59.333 102.771C39.4993 123.709 25.9648 88.302 9.56787 110.135Z" fill="#008BD0"/>
<path fill-rule="evenodd" clip-rule="evenodd" d="M76.1343 0C118.182 0 152.269 35.9856 152.269 80.3763C152.269 124.767 118.182 160.753 76.1343 160.753C34.0864 160.753 0 124.767 0 80.3763C0 35.9856 34.0864 0 76.1343 0ZM76.1343 2.36343C116.946 2.36343 150.03 37.2909 150.03 80.3763C150.03 123.462 116.946 158.389 76.1343 158.389C35.3228 158.389 2.23871 123.462 2.23871 80.3763C2.23871 37.2909 35.3228 2.36343 76.1343 2.36343Z" fill="#008BD0"/>
</svg>
